<svg width="315" height="55" viewBox="0 0 315 55" fill="none" xmlns="http://www.w3.org/2000/svg">
<mask id="mask0_45_123878" style="mask-type:luminance" maskUnits="userSpaceOnUse" x="0" y="0" width="23" height="6">
<path d="M0 0.50061H22.0799V5.69736H0V0.50061Z" fill="white"/>
</mask>
<g mask="url(#mask0_45_123878)">
<path d="M0 0.50061H22.0436V5.41185H0V0.50061Z" fill="white"/>
</g>
<mask id="mask1_45_123878" style="mask-type:luminance" maskUnits="userSpaceOnUse" x="0" y="10" width="23" height="6">
<path d="M0 10.0612H22.0799V15.5157H0V10.0612Z" fill="white"/>
</mask>
<g mask="url(#mask1_45_123878)">
<path d="M0 10.321H22.0436V15.2323H0V10.321Z" fill="white"/>
</g>
<mask id="mask2_45_123878" style="mask-type:luminance" maskUnits="userSpaceOnUse" x="0" y="19" width="23" height="7">
<path d="M0 19.8766H22.0799V25.3312H0V19.8766Z" fill="white"/>
</mask>
<g mask="url(#mask2_45_123878)">
<path d="M0 20.1454H22.0436V25.0566H0V20.1454Z" fill="white"/>
</g>
<mask id="mask3_45_123878" style="mask-type:luminance" maskUnits="userSpaceOnUse" x="26" y="29" width="23" height="7">
<path d="M26.0005 29.6962H48.4744V35.1507H26.0005V29.6962Z" fill="white"/>
</mask>
<g mask="url(#mask3_45_123878)">
<path d="M26.4536 29.9668H48.4953V34.878H26.4536V29.9668Z" fill="white"/>
</g>
<mask id="mask4_45_123878" style="mask-type:luminance" maskUnits="userSpaceOnUse" x="26" y="39" width="23" height="6">
<path d="M26.0005 39.5186H48.4744V44.9731H26.0005V39.5186Z" fill="white"/>
</mask>
<g mask="url(#mask4_45_123878)">
<path d="M26.4536 39.7899H48.4953V44.699H26.4536V39.7899Z" fill="white"/>
</g>
<mask id="mask5_45_123878" style="mask-type:luminance" maskUnits="userSpaceOnUse" x="26" y="49" width="23" height="6">
<path d="M26.0005 49.3298H48.4744V54.4968H26.0005V49.3298Z" fill="white"/>
</mask>
<g mask="url(#mask5_45_123878)">
<path d="M26.4536 49.6119H48.4953V54.5232H26.4536V49.6119Z" fill="white"/>
</g>
<mask id="mask6_45_123878" style="mask-type:luminance" maskUnits="userSpaceOnUse" x="43" y="0" width="6" height="26">
<path d="M43.6216 0.50061H48.4698V25.3338H43.6216V0.50061Z" fill="white"/>
</mask>
<g mask="url(#mask6_45_123878)">
<path d="M48.4904 0.50061V25.0589H44.084V0.50061H48.4904Z" fill="white"/>
</g>
<mask id="mask7_45_123878" style="mask-type:luminance" maskUnits="userSpaceOnUse" x="34" y="0" width="6" height="26">
<path d="M34.8071 0.50061H39.7031V25.3338H34.8071V0.50061Z" fill="white"/>
</mask>
<g mask="url(#mask7_45_123878)">
<path d="M39.6779 0.50061V25.0589H35.2695V0.50061H39.6779Z" fill="white"/>
</g>
<mask id="mask8_45_123878" style="mask-type:luminance" maskUnits="userSpaceOnUse" x="26" y="0" width="5" height="26">
<path d="M26.0005 0.50061H30.8965V25.3338H26.0005V0.50061Z" fill="white"/>
</mask>
<g mask="url(#mask8_45_123878)">
<path d="M30.8649 0.50061V25.0589H26.4565V0.50061H30.8649Z" fill="white"/>
</g>
<mask id="mask9_45_123878" style="mask-type:luminance" maskUnits="userSpaceOnUse" x="17" y="29" width="6" height="26">
<path d="M17.1841 29.6962H22.0801V54.4995H17.1841V29.6962Z" fill="white"/>
</mask>
<g mask="url(#mask9_45_123878)">
<path d="M22.0431 29.9668V54.5251H17.6348V29.9668H22.0431Z" fill="white"/>
</g>
<mask id="mask10_45_123878" style="mask-type:luminance" maskUnits="userSpaceOnUse" x="8" y="29" width="6" height="26">
<path d="M8.36963 29.6962H13.2656V54.4995H8.36963V29.6962Z" fill="white"/>
</mask>
<g mask="url(#mask10_45_123878)">
<path d="M13.2286 29.9668V54.5251H8.82031V29.9668H13.2286Z" fill="white"/>
</g>
<mask id="mask11_45_123878" style="mask-type:luminance" maskUnits="userSpaceOnUse" x="0" y="29" width="5" height="26">
<path d="M0 29.6962H4.45423V54.4995H0V29.6962Z" fill="white"/>
</mask>
<g mask="url(#mask11_45_123878)">
<path d="M4.41179 29.9668V54.5251H0.00537109V29.9668H4.41179Z" fill="white"/>
</g>
<mask id="mask12_45_123878" style="mask-type:luminance" maskUnits="userSpaceOnUse" x="10" y="12" width="29" height="31">
<path d="M10.3877 12.0629H38.1267V42.9664H10.3877V12.0629Z" fill="white"/>
</mask>
<g mask="url(#mask12_45_123878)">
<mask id="mask13_45_123878" style="mask-type:luminance" maskUnits="userSpaceOnUse" x="10" y="12" width="29" height="31">
<path d="M24.2635 12.0607C16.604 12.0607 10.394 18.979 10.394 27.5124C10.394 36.0458 16.604 42.9642 24.2635 42.9642C31.9251 42.9642 38.133 36.0458 38.133 27.5124C38.133 18.979 31.9251 12.0607 24.2635 12.0607Z" fill="white"/>
</mask>
<g mask="url(#mask13_45_123878)">
<path d="M10.394 12.0607H38.133V42.9642H10.394V12.0607Z" fill="white"/>
</g>
</g>
<path d="M16.3901 32.5037V23.0178H16.8721L22.8162 29.4695V23.0178H23.2752V32.5037H16.3901Z" fill="#7E0140"/>
<path d="M26.8506 28.0422C26.8506 27.6502 26.9347 27.2922 27.103 26.9684C27.2752 26.6403 27.5104 26.3782 27.8068 26.1843C28.1071 25.9861 28.4341 25.886 28.786 25.886C29.1322 25.886 29.4535 25.9861 29.7499 26.1843C30.0445 26.3782 30.2778 26.6403 30.4461 26.9684C30.6182 27.2922 30.7062 27.6502 30.7062 28.0422C30.7062 28.4343 30.6182 28.7965 30.4461 29.1246C30.2778 29.4485 30.0445 29.7106 29.7499 29.9087C29.4535 30.1026 29.1322 30.1985 28.786 30.1985C28.4341 30.1985 28.1071 30.1026 27.8068 29.9087C27.5104 29.7106 27.2752 29.4485 27.103 29.1246C26.9347 28.7965 26.8506 28.4343 26.8506 28.0422Z" fill="#7E0140"/>
<path d="M87.489 11.4987H91.2232C91.605 11.4987 91.7985 11.7142 91.7985 12.1396V42.8577C91.7985 43.286 91.605 43.4986 91.2232 43.4986H87.6668C87.3321 43.4986 87.1177 43.3238 87.0288 42.9742L81.5373 25.9021H81.349V42.8577C81.349 43.286 81.1555 43.4986 80.7737 43.4986H77.0499C76.6655 43.4986 76.4746 43.286 76.4746 42.8577V12.1396C76.4746 11.7142 76.6655 11.4987 77.0499 11.4987H80.5959C80.9306 11.4987 81.145 11.6735 81.2444 12.0231L86.7045 29.0252H86.9137V12.1396C86.9137 11.7142 87.1046 11.4987 87.489 11.4987Z" fill="white"/>
<path d="M95.3911 37.7448V21.267C95.3911 19.3733 95.833 17.94 96.7195 16.9669C97.6034 15.9968 98.8848 15.5103 100.558 15.5103H104.575C106.249 15.5103 107.527 15.9968 108.414 16.9669C109.298 17.94 109.742 19.3733 109.742 21.267V24.2269C109.742 24.6552 109.549 24.8679 109.167 24.8679H105.799C105.414 24.8679 105.224 24.6552 105.224 24.2269V22.2692C105.224 21.1971 104.745 20.661 103.791 20.661H101.489C100.532 20.661 100.056 21.1971 100.056 22.2692V36.7426C100.056 37.8089 100.532 38.3391 101.489 38.3391H103.791C104.745 38.3391 105.224 37.8089 105.224 36.7426V33.2582H103.362C102.977 33.2582 102.786 33.0456 102.786 32.6173V28.6202C102.786 28.1949 102.977 27.9793 103.362 27.9793H109.167C109.549 27.9793 109.742 28.1949 109.742 28.6202V37.7448C109.742 39.6093 109.298 41.0368 108.414 42.0215C107.527 43.0092 106.249 43.5015 104.575 43.5015H100.558C98.8848 43.5015 97.6034 43.0092 96.7195 42.0215C95.833 41.0368 95.3911 39.6093 95.3911 37.7448Z" fill="white"/>
<path d="M127.728 21.267V26.6625C127.728 27.4083 127.511 28.0376 127.08 28.5503C126.646 29.0572 126.11 29.3748 125.469 29.5059V29.5875C126.11 29.6894 126.646 30.0011 127.08 30.5197C127.511 31.0412 127.728 31.6734 127.728 32.4192V37.7448C127.728 39.6093 127.284 41.0368 126.4 42.0215C125.514 43.0092 124.219 43.5015 122.519 43.5015H113.911C113.526 43.5015 113.335 43.2888 113.335 42.8606V16.1512C113.335 15.7258 113.526 15.5103 113.911 15.5103H122.519C124.219 15.5103 125.514 15.9968 126.4 16.9669C127.284 17.94 127.728 19.3733 127.728 21.267ZM123.168 25.3456V22.141C123.168 21.0776 122.689 20.5445 121.735 20.5445H117.781V26.9072H121.735C122.689 26.9072 123.168 26.3886 123.168 25.3456ZM123.168 36.8591V33.7826C123.168 32.7193 122.689 32.1861 121.735 32.1861H117.781V38.4673H121.735C122.689 38.4673 123.168 37.9312 123.168 36.8591Z" fill="white"/>
<path d="M131.312 37.7448V21.267C131.312 19.3733 131.753 17.94 132.64 16.9669C133.524 15.9968 134.805 15.5103 136.479 15.5103H140.495C142.195 15.5103 143.482 15.9968 144.355 16.9669C145.226 17.94 145.663 19.3733 145.663 21.267V37.7448C145.663 39.6093 145.226 41.0368 144.355 42.0215C143.482 43.0092 142.195 43.5015 140.495 43.5015H136.479C134.805 43.5015 133.524 43.0092 132.64 42.0215C131.753 41.0368 131.312 39.6093 131.312 37.7448ZM137.41 38.3391H139.711C140.665 38.3391 141.144 37.8089 141.144 36.7426V22.2692C141.144 21.1971 140.665 20.661 139.711 20.661H137.41C136.453 20.661 135.977 21.1971 135.977 22.2692V36.7426C135.977 37.8089 136.453 38.3391 137.41 38.3391Z" fill="white"/>
<path d="M149.259 37.7448V21.267C149.259 19.3733 149.701 17.94 150.587 16.9669C151.471 15.9968 152.752 15.5103 154.426 15.5103H158.443C160.142 15.5103 161.429 15.9968 162.302 16.9669C163.173 17.94 163.61 19.3733 163.61 21.267V37.7448C163.61 39.6093 163.173 41.0368 162.302 42.0215C161.429 43.0092 160.142 43.5015 158.443 43.5015H154.426C152.752 43.5015 151.471 43.0092 150.587 42.0215C149.701 41.0368 149.259 39.6093 149.259 37.7448ZM155.357 38.3391H157.658C158.613 38.3391 159.091 37.8089 159.091 36.7426V22.2692C159.091 21.1971 158.613 20.661 157.658 20.661H155.357C154.4 20.661 153.924 21.1971 153.924 22.2692V36.7426C153.924 37.8089 154.4 38.3391 155.357 38.3391Z" fill="white"/>
<path d="M182.567 43.5015H178.77C178.407 43.5015 178.132 43.3034 177.944 42.9072L173.415 33.0252L172.086 35.8569V42.6974C172.086 43.2335 171.848 43.5015 171.375 43.5015H167.923C167.447 43.5015 167.212 43.2335 167.212 42.6974V16.3027C167.212 15.7754 167.447 15.5103 167.923 15.5103H171.375C171.848 15.5103 172.086 15.7754 172.086 16.3027V26.7091L177.62 16.1046C177.808 15.7084 178.082 15.5103 178.446 15.5103H182.212C182.476 15.5103 182.661 15.6035 182.766 15.7899C182.876 15.9764 182.86 16.2036 182.714 16.4658L176.615 28.4221L183.111 42.5809C183.229 42.846 183.239 43.0674 183.143 43.2451C183.051 43.417 182.86 43.5015 182.567 43.5015Z" fill="white"/>
<path d="M187.016 43.5015H190.74C191.122 43.5015 191.315 43.2888 191.315 42.8606V16.1512C191.315 15.7258 191.122 15.5103 190.74 15.5103H187.016C186.632 15.5103 186.441 15.7258 186.441 16.1512V42.8606C186.441 43.2888 186.632 43.5015 187.016 43.5015Z" fill="white"/>
<path d="M206.295 15.5103H209.663C210.044 15.5103 210.238 15.7258 210.238 16.1512V42.8606C210.238 43.2888 210.044 43.5015 209.663 43.5015H206.828C206.54 43.5015 206.326 43.3267 206.179 42.9771L199.433 27.6996V42.8606C199.433 43.2888 199.239 43.5015 198.857 43.5015H195.489C195.105 43.5015 194.914 43.2888 194.914 42.8606V16.1512C194.914 15.7258 195.105 15.5103 195.489 15.5103H198.324C198.609 15.5103 198.821 15.6821 198.962 16.023L205.719 31.3005V16.1512C205.719 15.7258 205.91 15.5103 206.295 15.5103Z" fill="white"/>
<path d="M213.831 37.7448V21.267C213.831 19.3733 214.273 17.94 215.159 16.9669C216.043 15.9968 217.324 15.5103 218.998 15.5103H223.014C224.688 15.5103 225.967 15.9968 226.853 16.9669C227.737 17.94 228.182 19.3733 228.182 21.267V24.2269C228.182 24.6552 227.988 24.8679 227.606 24.8679H224.238C223.854 24.8679 223.663 24.6552 223.663 24.2269V22.2692C223.663 21.1971 223.184 20.661 222.23 20.661H219.929C218.972 20.661 218.496 21.1971 218.496 22.2692V36.7426C218.496 37.8089 218.972 38.3391 219.929 38.3391H222.23C223.184 38.3391 223.663 37.8089 223.663 36.7426V33.2582H221.801C221.417 33.2582 221.226 33.0456 221.226 32.6173V28.6202C221.226 28.1949 221.417 27.9793 221.801 27.9793H227.606C227.988 27.9793 228.182 28.1949 228.182 28.6202V37.7448C228.182 39.6093 227.737 41.0368 226.853 42.0215C225.967 43.0092 224.688 43.5015 223.014 43.5015H218.998C217.324 43.5015 216.043 43.0092 215.159 42.0215C214.273 41.0368 213.831 39.6093 213.831 37.7448Z" fill="white"/>
<path d="M236.945 15.5103H240.962C242.661 15.5103 243.948 15.9968 244.821 16.9669C245.692 17.94 246.129 19.3733 246.129 21.267V23.9006C246.129 24.3289 245.935 24.5416 245.554 24.5416H241.935C241.55 24.5416 241.359 24.3289 241.359 23.9006V22.2226C241.359 21.1592 240.881 20.6261 239.926 20.6261H237.949C236.992 20.6261 236.516 21.1592 236.516 22.2226V25.6253L245.198 28.7484C245.818 28.9815 246.129 29.4767 246.129 30.2284V37.7448C246.129 39.6093 245.692 41.0368 244.821 42.0215C243.948 43.0092 242.661 43.5015 240.962 43.5015H236.945C235.271 43.5015 233.99 43.0092 233.106 42.0215C232.22 41.0368 231.778 39.6093 231.778 37.7448V35.1461C231.778 34.7207 231.969 34.5052 232.353 34.5052H235.972C236.354 34.5052 236.548 34.7207 236.548 35.1461V36.8242C236.548 37.8904 237.024 38.4207 237.981 38.4207H239.926C240.881 38.4207 241.359 37.8904 241.359 36.8242V32.7805L232.74 29.669C232.097 29.4301 231.778 28.9349 231.778 28.1891V21.267C231.778 19.3733 232.22 17.94 233.106 16.9669C233.99 15.9968 235.271 15.5103 236.945 15.5103Z" fill="white"/>
<path d="M249.719 42.6904V39.0197C249.719 38.4836 249.955 38.2156 250.431 38.2156H253.705C254.178 38.2156 254.416 38.4836 254.416 39.0197V42.6904C254.416 43.2265 254.178 43.4945 253.705 43.4945H250.431C249.955 43.4945 249.719 43.2265 249.719 42.6904Z" fill="white"/>
<path d="M272.4 21.267V25.5787C272.4 26.007 272.206 26.2196 271.825 26.2196H268.446C268.062 26.2196 267.871 26.007 267.871 25.5787V22.3041C267.871 21.2408 267.392 20.7076 266.438 20.7076H264.136C263.179 20.7076 262.703 21.2408 262.703 22.3041V36.8242C262.703 37.8904 263.179 38.4207 264.136 38.4207H266.438C267.392 38.4207 267.871 37.8904 267.871 36.8242V33.4214C267.871 32.996 268.062 32.7805 268.446 32.7805H271.825C272.206 32.7805 272.4 32.996 272.4 33.4214V37.7448C272.4 39.6093 271.955 41.0368 271.071 42.0215C270.185 43.0092 268.906 43.5015 267.233 43.5015H263.205C261.532 43.5015 260.245 43.0092 259.346 42.0215C258.451 41.0368 258.007 39.6093 258.007 37.7448V21.267C258.007 19.3733 258.451 17.94 259.346 16.9669C260.245 15.9968 261.532 15.5103 263.205 15.5103H267.233C268.906 15.5103 270.185 15.9968 271.071 16.9669C271.955 17.94 272.4 19.3733 272.4 21.267Z" fill="#FDAF02"/>
<path d="M275.989 37.7448V21.267C275.989 19.3733 276.431 17.94 277.318 16.9669C278.202 15.9968 279.483 15.5103 281.157 15.5103H285.173C286.873 15.5103 288.159 15.9968 289.033 16.9669C289.904 17.94 290.34 19.3733 290.34 21.267V37.7448C290.34 39.6093 289.904 41.0368 289.033 42.0215C288.159 43.0092 286.873 43.5015 285.173 43.5015H281.157C279.483 43.5015 278.202 43.0092 277.318 42.0215C276.431 41.0368 275.989 39.6093 275.989 37.7448ZM282.087 38.3391H284.389C285.343 38.3391 285.822 37.8089 285.822 36.7426V22.2692C285.822 21.1971 285.343 20.661 284.389 20.661H282.087C281.13 20.661 280.654 21.1971 280.654 22.2692V36.7426C280.654 37.8089 281.13 38.3391 282.087 38.3391Z" fill="#FDAF02"/>
<path d="M308.942 15.5103H313.68C314.162 15.5103 314.402 15.7754 314.402 16.3027V42.6974C314.402 43.2335 314.162 43.5015 313.68 43.5015H310.344C309.863 43.5015 309.622 43.2335 309.622 42.6974V26.9888H309.371L306.003 42.8256C305.882 43.2772 305.618 43.5015 305.208 43.5015H303.095C302.682 43.5015 302.418 43.2772 302.3 42.8256L298.932 26.9888H298.681V42.6974C298.681 43.2335 298.44 43.5015 297.959 43.5015H294.654C294.178 43.5015 293.942 43.2335 293.942 42.6974V16.3027C293.942 15.7754 294.178 15.5103 294.654 15.5103H299.392C299.803 15.5103 300.067 15.7375 300.187 16.1861L304.172 34.0274L308.158 16.1861C308.275 15.7375 308.537 15.5103 308.942 15.5103Z" fill="#FDAF02"/>
</svg>
